<?xml version="1.0" encoding="UTF-8" standalone="no"?>
<!-- Created with Inkscape (http://www.inkscape.org/) -->

<svg
   xmlns:dc="http://purl.org/dc/elements/1.1/"
   xmlns:cc="http://creativecommons.org/ns#"
   xmlns:rdf="http://www.w3.org/1999/02/22-rdf-syntax-ns#"
   xmlns:svg="http://www.w3.org/2000/svg"
   xmlns="http://www.w3.org/2000/svg"
   xmlns:sodipodi="http://sodipodi.sourceforge.net/DTD/sodipodi-0.dtd"
   xmlns:inkscape="http://www.inkscape.org/namespaces/inkscape"
   id="svg8"
   version="1.1"
   viewBox="0 0 72.760421 72.760445"
   height="275.00009"
   width="275.00003"
   inkscape:version="0.92.2 5c3e80d, 2017-08-06"
   sodipodi:docname="radar.svg"
   inkscape:export-filename="/Users/lidin/Documents/Skolarbeten/Chalmers/CIU265 - IxD Project 2017/Projekt/html/assets/images/radar.png"
   inkscape:export-xdpi="96"
   inkscape:export-ydpi="96">
  <sodipodi:namedview
     inkscape:window-maximized="1"
     inkscape:window-y="0"
     inkscape:window-x="0"
     inkscape:window-height="856"
     inkscape:window-width="1440"
     units="px"
     showgrid="false"
     inkscape:current-layer="layer1"
     inkscape:document-units="mm"
     inkscape:cy="147.39962"
     inkscape:cx="124.17912"
     inkscape:zoom="1.979899"
     inkscape:pageshadow="2"
     inkscape:pageopacity="0.0"
     borderopacity="1.0"
     bordercolor="#666666"
     pagecolor="#ffffff"
     id="base"
     inkscape:object-nodes="true"
     inkscape:snap-object-midpoints="true" />
  <defs
     id="defs2" />
  <metadata
     id="metadata5">
    <rdf:RDF>
      <cc:Work
         rdf:about="">
        <dc:format>image/svg+xml</dc:format>
        <dc:type
           rdf:resource="http://purl.org/dc/dcmitype/StillImage" />
        <dc:title></dc:title>
      </cc:Work>
    </rdf:RDF>
  </metadata>
  <g
     transform="translate(-55.691407,-163.2565)"
     id="layer1"
     inkscape:groupmode="layer"
     inkscape:label="Layer 1">
    <path
       style="fill:#333333;fill-opacity:1;stroke:#dddddd;stroke-width:2.11667085;stroke-miterlimit:4;stroke-dasharray:none;stroke-opacity:1"
       d="M 127.39349,199.63672 A 35.321871,35.321871 0 0 1 92.071617,234.95861 35.321871,35.321871 0 0 1 56.749745,199.63672 35.321871,35.321871 0 0 1 92.071617,164.31484 35.321871,35.321871 0 0 1 127.39349,199.63672 Z"
       id="path5724"
       inkscape:connector-curvature="0" />
    <path
       style="fill:#dddddd;fill-opacity:1;stroke:none;stroke-width:7.76031542;stroke-miterlimit:4;stroke-dasharray:none;stroke-opacity:1"
       d="M 137.5 8 A 129.49999 129.49999 0 0 0 137.25 8.0097656 L 137.25 27.25 L 110.25391 27.25 L 110.25391 11.058594 A 129.49999 129.49999 0 0 0 109.75195 11.171875 L 109.75195 27.25 L 82.75 27.25 L 82.75 20.302734 A 129.49999 129.49999 0 0 0 82.253906 20.523438 L 82.253906 27.25 L 69.761719 27.25 A 129.49999 129.49999 0 0 0 68.886719 27.751953 L 82.253906 27.751953 L 82.253906 54.746094 L 55.251953 54.746094 L 55.251953 37.595703 A 129.49999 129.49999 0 0 0 54.75 38.037109 L 54.75 54.746094 L 37.941406 54.746094 A 129.49999 129.49999 0 0 0 37.560547 55.248047 L 54.75 55.248047 L 54.75 82.251953 L 27.753906 82.251953 L 27.753906 69.052734 A 129.49999 129.49999 0 0 0 27.251953 69.871094 L 27.251953 82.251953 L 20.550781 82.251953 A 129.49999 129.49999 0 0 0 20.3125 82.746094 L 27.251953 82.746094 L 27.251953 109.75 L 11.097656 109.75 A 129.49999 129.49999 0 0 0 10.970703 110.25195 L 27.251953 110.25195 L 27.251953 137.24609 L 8.0136719 137.24609 A 129.49999 129.49999 0 0 0 8 137.5 A 129.49999 129.49999 0 0 0 8.0078125 137.74805 L 27.251953 137.74805 L 27.251953 164.75195 L 11.060547 164.75195 A 129.49999 129.49999 0 0 0 11.171875 165.24609 L 27.251953 165.24609 L 27.251953 192.25 L 20.302734 192.25 A 129.49999 129.49999 0 0 0 20.527344 192.75195 L 27.251953 192.75195 L 27.251953 205.24219 A 129.49999 129.49999 0 0 0 27.753906 206.11719 L 27.753906 192.75195 L 54.75 192.75195 L 54.75 219.74609 L 37.59375 219.74609 A 129.49999 129.49999 0 0 0 38.035156 220.24805 L 54.75 220.24805 L 54.75 237.06055 A 129.49999 129.49999 0 0 0 55.251953 237.44141 L 55.251953 220.24805 L 82.253906 220.24805 L 82.253906 247.25195 L 69.0625 247.25195 A 129.49999 129.49999 0 0 0 69.867188 247.74609 L 82.253906 247.74609 L 82.253906 254.45117 A 129.49999 129.49999 0 0 0 82.75 254.68945 L 82.75 247.74609 L 109.75195 247.74609 L 109.75195 263.90234 A 129.49999 129.49999 0 0 0 110.25391 264.03125 L 110.25391 247.74609 L 137.25 247.74609 L 137.25 266.98828 A 129.49999 129.49999 0 0 0 137.5 267 A 129.49999 129.49999 0 0 0 137.75195 266.99023 L 137.75195 247.74609 L 164.75391 247.74609 L 164.75391 263.93945 A 129.49999 129.49999 0 0 0 165.25 263.82812 L 165.25 247.74609 L 192.25 247.74609 L 192.25 254.69727 A 129.49999 129.49999 0 0 0 192.75391 254.47266 L 192.75391 247.74609 L 205.24609 247.74609 A 129.49999 129.49999 0 0 0 206.10742 247.25195 L 192.75391 247.25195 L 192.75391 220.24805 L 219.75 220.24805 L 219.75 237.40234 A 129.49999 129.49999 0 0 0 220.25195 236.96094 L 220.25195 220.24805 L 237.0625 220.24805 A 129.49999 129.49999 0 0 0 237.44336 219.74609 L 220.25195 219.74609 L 220.25195 192.75195 L 247.25391 192.75195 L 247.25391 205.93555 A 129.49999 129.49999 0 0 0 247.75 205.125 L 247.75 192.75195 L 254.44727 192.75195 A 129.49999 129.49999 0 0 0 254.68945 192.25 L 247.75 192.25 L 247.75 165.24609 L 263.90234 165.24609 A 129.49999 129.49999 0 0 0 264.0293 164.75195 L 247.75 164.75195 L 247.75 137.74805 L 266.98828 137.74805 A 129.49999 129.49999 0 0 0 267 137.5 A 129.49999 129.49999 0 0 0 266.99023 137.24609 L 247.75 137.24609 L 247.75 110.25195 L 263.93945 110.25195 A 129.49999 129.49999 0 0 0 263.82812 109.75 L 247.75 109.75 L 247.75 82.746094 L 254.69531 82.746094 A 129.49999 129.49999 0 0 0 254.47461 82.251953 L 247.75 82.251953 L 247.75 69.761719 A 129.49999 129.49999 0 0 0 247.25391 68.896484 L 247.25391 82.251953 L 220.25195 82.251953 L 220.25195 55.248047 L 237.40039 55.248047 A 129.49999 129.49999 0 0 0 236.95898 54.746094 L 220.25195 54.746094 L 220.25195 37.941406 A 129.49999 129.49999 0 0 0 219.75 37.558594 L 219.75 54.746094 L 192.75391 54.746094 L 192.75391 27.751953 L 205.94531 27.751953 A 129.49999 129.49999 0 0 0 205.125 27.25 L 192.75391 27.25 L 192.75391 20.552734 A 129.49999 129.49999 0 0 0 192.25 20.310547 L 192.25 27.25 L 165.25 27.25 L 165.25 11.097656 A 129.49999 129.49999 0 0 0 164.75391 10.970703 L 164.75391 27.25 L 137.75195 27.25 L 137.75195 8.0117188 A 129.49999 129.49999 0 0 0 137.5 8 z M 82.75 27.751953 L 109.75195 27.751953 L 109.75195 54.746094 L 82.75 54.746094 L 82.75 27.751953 z M 110.25391 27.751953 L 137.25 27.751953 L 137.25 54.746094 L 110.25391 54.746094 L 110.25391 27.751953 z M 137.75195 27.751953 L 164.75391 27.751953 L 164.75391 54.746094 L 137.75195 54.746094 L 137.75195 27.751953 z M 165.25 27.751953 L 192.25 27.751953 L 192.25 54.746094 L 165.25 54.746094 L 165.25 27.751953 z M 55.251953 55.248047 L 82.253906 55.248047 L 82.253906 82.251953 L 55.251953 82.251953 L 55.251953 55.248047 z M 82.75 55.248047 L 109.75195 55.248047 L 109.75195 82.251953 L 82.75 82.251953 L 82.75 55.248047 z M 110.25391 55.248047 L 137.25 55.248047 L 137.25 82.251953 L 110.25391 82.251953 L 110.25391 55.248047 z M 137.75195 55.248047 L 164.75391 55.248047 L 164.75391 82.251953 L 137.75195 82.251953 L 137.75195 55.248047 z M 165.25 55.248047 L 192.25 55.248047 L 192.25 82.251953 L 165.25 82.251953 L 165.25 55.248047 z M 192.75391 55.248047 L 219.75 55.248047 L 219.75 82.251953 L 192.75391 82.251953 L 192.75391 55.248047 z M 27.753906 82.746094 L 54.75 82.746094 L 54.75 109.75 L 27.753906 109.75 L 27.753906 82.746094 z M 55.251953 82.746094 L 82.253906 82.746094 L 82.253906 109.75 L 55.251953 109.75 L 55.251953 82.746094 z M 82.75 82.746094 L 109.75195 82.746094 L 109.75195 109.75 L 82.75 109.75 L 82.75 82.746094 z M 110.25391 82.746094 L 137.25 82.746094 L 137.25 109.75 L 110.25391 109.75 L 110.25391 82.746094 z M 137.75195 82.746094 L 164.75391 82.746094 L 164.75391 109.75 L 137.75195 109.75 L 137.75195 82.746094 z M 165.25 82.746094 L 192.25 82.746094 L 192.25 109.75 L 165.25 109.75 L 165.25 82.746094 z M 192.75391 82.746094 L 219.75 82.746094 L 219.75 109.75 L 192.75391 109.75 L 192.75391 82.746094 z M 220.25195 82.746094 L 247.25391 82.746094 L 247.25391 109.75 L 220.25195 109.75 L 220.25195 82.746094 z M 27.753906 110.25195 L 54.75 110.25195 L 54.75 137.24609 L 27.753906 137.24609 L 27.753906 110.25195 z M 55.251953 110.25195 L 82.253906 110.25195 L 82.253906 137.24609 L 55.251953 137.24609 L 55.251953 110.25195 z M 82.75 110.25195 L 109.75195 110.25195 L 109.75195 137.24609 L 82.75 137.24609 L 82.75 110.25195 z M 110.25391 110.25195 L 137.25 110.25195 L 137.25 137.24609 L 110.25391 137.24609 L 110.25391 110.25195 z M 137.75195 110.25195 L 164.75391 110.25195 L 164.75391 137.24609 L 137.75195 137.24609 L 137.75195 110.25195 z M 165.25 110.25195 L 192.25 110.25195 L 192.25 137.24609 L 165.25 137.24609 L 165.25 110.25195 z M 192.75391 110.25195 L 219.75 110.25195 L 219.75 137.24609 L 192.75391 137.24609 L 192.75391 110.25195 z M 220.25195 110.25195 L 247.25391 110.25195 L 247.25391 137.24609 L 220.25195 137.24609 L 220.25195 110.25195 z M 27.753906 137.74805 L 54.75 137.74805 L 54.75 164.75195 L 27.753906 164.75195 L 27.753906 137.74805 z M 55.251953 137.74805 L 82.253906 137.74805 L 82.253906 164.75195 L 55.251953 164.75195 L 55.251953 137.74805 z M 82.75 137.74805 L 109.75195 137.74805 L 109.75195 164.75195 L 82.75 164.75195 L 82.75 137.74805 z M 110.25391 137.74805 L 137.25 137.74805 L 137.25 164.75195 L 110.25391 164.75195 L 110.25391 137.74805 z M 137.75195 137.74805 L 164.75391 137.74805 L 164.75391 164.75195 L 137.75195 164.75195 L 137.75195 137.74805 z M 165.25 137.74805 L 192.25 137.74805 L 192.25 164.75195 L 165.25 164.75195 L 165.25 137.74805 z M 192.75391 137.74805 L 219.75 137.74805 L 219.75 164.75195 L 192.75391 164.75195 L 192.75391 137.74805 z M 220.25195 137.74805 L 247.25391 137.74805 L 247.25391 164.75195 L 220.25195 164.75195 L 220.25195 137.74805 z M 27.753906 165.24609 L 54.75 165.24609 L 54.75 192.25 L 27.753906 192.25 L 27.753906 165.24609 z M 55.251953 165.24609 L 82.253906 165.24609 L 82.253906 192.25 L 55.251953 192.25 L 55.251953 165.24609 z M 82.75 165.24609 L 109.75195 165.24609 L 109.75195 192.25 L 82.75 192.25 L 82.75 165.24609 z M 110.25391 165.24609 L 137.25 165.24609 L 137.25 192.25 L 110.25391 192.25 L 110.25391 165.24609 z M 137.75195 165.24609 L 164.75391 165.24609 L 164.75391 192.25 L 137.75195 192.25 L 137.75195 165.24609 z M 165.25 165.24609 L 192.25 165.24609 L 192.25 192.25 L 165.25 192.25 L 165.25 165.24609 z M 192.75391 165.24609 L 219.75 165.24609 L 219.75 192.25 L 192.75391 192.25 L 192.75391 165.24609 z M 220.25195 165.24609 L 247.25391 165.24609 L 247.25391 192.25 L 220.25195 192.25 L 220.25195 165.24609 z M 55.251953 192.75195 L 82.253906 192.75195 L 82.253906 219.74609 L 55.251953 219.74609 L 55.251953 192.75195 z M 82.75 192.75195 L 109.75195 192.75195 L 109.75195 219.74609 L 82.75 219.74609 L 82.75 192.75195 z M 110.25391 192.75195 L 137.25 192.75195 L 137.25 219.74609 L 110.25391 219.74609 L 110.25391 192.75195 z M 137.75195 192.75195 L 164.75391 192.75195 L 164.75391 219.74609 L 137.75195 219.74609 L 137.75195 192.75195 z M 165.25 192.75195 L 192.25 192.75195 L 192.25 219.74609 L 165.25 219.74609 L 165.25 192.75195 z M 192.75391 192.75195 L 219.75 192.75195 L 219.75 219.74609 L 192.75391 219.74609 L 192.75391 192.75195 z M 82.75 220.24805 L 109.75195 220.24805 L 109.75195 247.25195 L 82.75 247.25195 L 82.75 220.24805 z M 110.25391 220.24805 L 137.25 220.24805 L 137.25 247.25195 L 110.25391 247.25195 L 110.25391 220.24805 z M 137.75195 220.24805 L 164.75391 220.24805 L 164.75391 247.25195 L 137.75195 247.25195 L 137.75195 220.24805 z M 165.25 220.24805 L 192.25 220.24805 L 192.25 247.25195 L 165.25 247.25195 L 165.25 220.24805 z "
       id="path10"
       transform="matrix(0.26458333,0,0,0.26458333,55.691407,163.2565)" />
    <path
       style="fill:#5fa4f1;fill-opacity:1;stroke:#5fa4f1;stroke-width:1.19062495;stroke-linecap:round;stroke-linejoin:bevel;stroke-miterlimit:4;stroke-dasharray:none;stroke-opacity:1;paint-order:normal"
       d="m 88.138277,204.44195 4,-10 4,10 -4,-3 z"
       id="path6094"
       inkscape:connector-curvature="0"
       sodipodi:nodetypes="ccccc" />
  </g>
</svg>
